HIERARCHY
ROOT Hips
{
    OFFSET   0.000000   0.000000   0.000000
    CHANNELS 6 Xposition Yposition Zposition Zrotation Xrotation Yrotation
    JOINT Chest
    {
        OFFSET   0.000000   8.007240   0.000000
        CHANNELS 3 Zrotation Xrotation Yrotation
        JOINT Chest2
        {
            OFFSET   0.000000  22.077100   0.000000
            CHANNELS 3 Zrotation Xrotation Yrotation
            JOINT Neck
            {
                OFFSET   0.000000  23.254800   0.000000
                CHANNELS 3 Zrotation Xrotation Yrotation
                JOINT Head
                {
                    OFFSET   0.000000  14.370000   1.956600
                    CHANNELS 3 Zrotation Xrotation Yrotation
                    End Site
                    {
                        OFFSET   0.000000  19.566000   0.000000
                    }
                }
            }
            JOINT LeftCollar
            {
                OFFSET   3.911900  19.017000  -0.467064
                CHANNELS 3 Zrotation Xrotation Yrotation
                JOINT LeftShoulder
                {
                    OFFSET  10.383700   0.000000   0.000000
                    CHANNELS 3 Zrotation Xrotation Yrotation
                    JOINT LeftElbow
                    {
                        OFFSET  26.662100   0.001476   0.000517
                        CHANNELS 3 Zrotation Xrotation Yrotation
                        JOINT LeftWrist
                        {
                            OFFSET  28.869000  -0.000025  -0.000106
                            CHANNELS 3 Zrotation Xrotation Yrotation
                            JOINT LeftFinger0
                            {
                                OFFSET   2.044660  -2.323460   3.252850
                                CHANNELS 3 Zrotation Xrotation Yrotation
                                JOINT LeftFinger01
                                {
                                    OFFSET   3.088130   0.000000   0.000000
                                    CHANNELS 3 Zrotation Xrotation Yrotation
                                    JOINT LeftFinger02
                                    {
                                        OFFSET   2.639460   0.000000   0.000000
                                        CHANNELS 3 Zrotation Xrotation Yrotation
                                        End Site
                                        {
                                            OFFSET   2.582190   0.000000   0.000000
                                        }
                                    }
                                }
                            }
                            JOINT LeftFinger1
                            {
                                OFFSET   8.364480   0.000000   3.252850
                                CHANNELS 3 Zrotation Xrotation Yrotation
                                JOINT LeftFinger11
                                {
                                    OFFSET   4.646930   0.000000   0.000000
                                    CHANNELS 3 Zrotation Xrotation Yrotation
                                    JOINT LeftFinger12
                                    {
                                        OFFSET   2.323460   0.000000   0.000000
                                        CHANNELS 3 Zrotation Xrotation Yrotation
                                        End Site
                                        {
                                            OFFSET   2.273050   0.000000   0.000000
                                        }
                                    }
                                }
                            }
                            JOINT LeftFinger2
                            {
                                OFFSET   8.364490   0.000015   1.078090
                                CHANNELS 3 Zrotation Xrotation Yrotation
                                JOINT LeftFinger21
                                {
                                    OFFSET   5.111620   0.000000   0.000000
                                    CHANNELS 3 Zrotation Xrotation Yrotation
                                    JOINT LeftFinger22
                                    {
                                        OFFSET   2.788160   0.000016   0.000000
                                        CHANNELS 3 Zrotation Xrotation Yrotation
                                        End Site
                                        {
                                            OFFSET   2.727660   0.000000   0.000000
                                        }
                                    }
                                }
                            }
                            JOINT LeftFinger3
                            {
                                OFFSET   7.899780   0.000017  -1.078090
                                CHANNELS 3 Zrotation Xrotation Yrotation
                                JOINT LeftFinger31
                                {
                                    OFFSET   4.646930   0.000000   0.000000
                                    CHANNELS 3 Zrotation Xrotation Yrotation
                                    JOINT LeftFinger32
                                    {
                                        OFFSET   2.323470   0.000000   0.000000
                                        CHANNELS 3 Zrotation Xrotation Yrotation
                                        End Site
                                        {
                                            OFFSET   2.273050   0.000000   0.000000
                                        }
                                    }
                                }
                            }
                            JOINT LeftFinger4
                            {
                                OFFSET   7.435090   0.000000  -3.252850
                                CHANNELS 3 Zrotation Xrotation Yrotation
                                JOINT LeftFinger41
                                {
                                    OFFSET   3.717550   0.000000   0.000000
                                    CHANNELS 3 Zrotation Xrotation Yrotation
                                    JOINT LeftFinger42
                                    {
                                        OFFSET   1.858770   0.000000   0.000000
                                        CHANNELS 3 Zrotation Xrotation Yrotation
                                        End Site
                                        {
                                            OFFSET   1.818440   0.000000   0.000000
                                        }
                                    }
                                }
                            }
                        }
                    }
                }
            }
            JOINT RightCollar
            {
                OFFSET  -3.911900  19.017000  -0.467063
                CHANNELS 3 Zrotation Xrotation Yrotation
                JOINT RightShoulder
                {
                    OFFSET -10.383700   0.000019   0.000000
                    CHANNELS 3 Zrotation Xrotation Yrotation
                    JOINT RightElbow
                    {
                        OFFSET -26.662100   0.001175   0.000102
                        CHANNELS 3 Zrotation Xrotation Yrotation
                        JOINT RightWrist
                        {
                            OFFSET -28.869000   0.000016  -0.000079
                            CHANNELS 3 Zrotation Xrotation Yrotation
                            JOINT RightFinger0
                            {
                                OFFSET  -2.044660  -2.323490   3.252850
                                CHANNELS 3 Zrotation Xrotation Yrotation
                                JOINT RightFinger01
                                {
                                    OFFSET  -3.088140   0.000000   0.000000
                                    CHANNELS 3 Zrotation Xrotation Yrotation
                                    JOINT RightFinger02
                                    {
                                        OFFSET  -2.639460   0.000000   0.000000
                                        CHANNELS 3 Zrotation Xrotation Yrotation
                                        End Site
                                        {
                                            OFFSET  -2.582190   0.000000   0.000000
                                        }
                                    }
                                }
                            }
                            JOINT RightFinger1
                            {
                                OFFSET  -8.364480   0.000000   3.252850
                                CHANNELS 3 Zrotation Xrotation Yrotation
                                JOINT RightFinger11
                                {
                                    OFFSET  -4.646930   0.000000   0.000000
                                    CHANNELS 3 Zrotation Xrotation Yrotation
                                    JOINT RightFinger12
                                    {
                                        OFFSET  -2.323470   0.000000   0.000000
                                        CHANNELS 3 Zrotation Xrotation Yrotation
                                        End Site
                                        {
                                            OFFSET  -2.273050   0.000000   0.000000
                                        }
                                    }
                                }
                            }
                            JOINT RightFinger2
                            {
                                OFFSET  -8.364480   0.000000   1.078090
                                CHANNELS 3 Zrotation Xrotation Yrotation
                                JOINT RightFinger21
                                {
                                    OFFSET  -5.111620   0.000000   0.000000
                                    CHANNELS 3 Zrotation Xrotation Yrotation
                                    JOINT RightFinger22
                                    {
                                        OFFSET  -2.788160   0.000000   0.000000
                                        CHANNELS 3 Zrotation Xrotation Yrotation
                                        End Site
                                        {
                                            OFFSET  -2.727660   0.000000   0.000000
                                        }
                                    }
                                }
                            }
                            JOINT RightFinger3
                            {
                                OFFSET  -7.899780   0.000000  -1.078090
                                CHANNELS 3 Zrotation Xrotation Yrotation
                                JOINT RightFinger31
                                {
                                    OFFSET  -4.646930   0.000000   0.000000
                                    CHANNELS 3 Zrotation Xrotation Yrotation
                                    JOINT RightFinger32
                                    {
                                        OFFSET  -2.323470   0.000000   0.000000
                                        CHANNELS 3 Zrotation Xrotation Yrotation
                                        End Site
                                        {
                                            OFFSET  -2.273050   0.000000   0.000000
                                        }
                                    }
                                }
                            }
                            JOINT RightFinger4
                            {
                                OFFSET  -7.435090   0.000000  -3.252850
                                CHANNELS 3 Zrotation Xrotation Yrotation
                                JOINT RightFinger41
                                {
                                    OFFSET  -3.717550   0.000000   0.000000
                                    CHANNELS 3 Zrotation Xrotation Yrotation
                                    JOINT RightFinger42
                                    {
                                        OFFSET  -1.858770   0.000000   0.000000
                                        CHANNELS 3 Zrotation Xrotation Yrotation
                                        End Site
                                        {
                                            OFFSET  -1.818440   0.000000   0.000000
                                        }
                                    }
                                }
                            }
                        }
                    }
                }
            }
        }
    }
    JOINT LeftHip
    {
        OFFSET   9.783040   0.000000   0.000000
        CHANNELS 3 Zrotation Xrotation Yrotation
        JOINT LeftKnee
        {
            OFFSET   0.000032 -41.789100  -0.002222
            CHANNELS 3 Zrotation Xrotation Yrotation
            JOINT LeftAnkle
            {
                OFFSET   0.000087 -41.133200  -0.000135
                CHANNELS 3 Zrotation Xrotation Yrotation
                JOINT LeftToe
                {
                    OFFSET   0.000000  -6.358960  14.674500
                    CHANNELS 3 Zrotation Xrotation Yrotation
                    End Site
                    {
                        OFFSET   0.000000   0.000000   3.913200
                    }
                }
            }
        }
    }
    JOINT RightHip
    {
        OFFSET  -9.783040   0.000000   0.000000
        CHANNELS 3 Zrotation Xrotation Yrotation
        JOINT RightKnee
        {
            OFFSET   0.000047 -41.789100  -0.000896
            CHANNELS 3 Zrotation Xrotation Yrotation
            JOINT RightAnkle
            {
                OFFSET  -0.000117 -41.133300  -0.000248
                CHANNELS 3 Zrotation Xrotation Yrotation
                JOINT RightToe
                {
                    OFFSET   0.000000  -6.358970  14.674500
                    CHANNELS 3 Zrotation Xrotation Yrotation
                    End Site
                    {
                        OFFSET   0.000000   0.000000   3.913200
                    }
                }
            }
        }
    }
}
MOTION
Frames: 6
Frame Time:   0.016667
 -0.604068  89.399800   1.163230  -0.773549  -1.871320   4.529700   0.883947   0.708148  -0.326675   1.772120   1.411160  -0.664330  -1.672540   1.430520   0.049914  -2.752510   2.893170   1.865520  -1.914850   4.840170   8.627280 -80.393000   3.705780   3.189100   2.259580   8.121430 -15.670000  10.006500  -5.596550  -0.993345  39.444600  34.185900 -52.548100 -34.164100   0.002682   0.002048 -12.082000   0.008622   0.002819 -36.650300  -0.192080   0.258172 -29.986900  -0.004418   0.003809 -20.990800  -0.003437   0.003653 -33.209900  -3.652950   5.553410 -50.080100   0.005970  -0.011856 -33.353400   0.004126   0.000360 -28.634400  -4.434800   8.036290 -43.419700   0.000505  -0.012239 -28.917500   0.001560  -0.000626 -36.760300  -7.464490   9.865540 -56.108300   0.002272  -0.001984 -37.368100   0.003914   0.005593   4.966850   5.867470   3.904310  70.877900  -6.154200  -5.210180   3.173010  -4.439890  12.059600 -15.758600  -0.037590   4.321560 -41.634600  36.219000  74.242400  27.242000   0.002338  -0.005476   8.620990   0.006076  -0.005426  31.233000   0.936981   1.544710  25.564600  -0.002645  -0.002881  17.895200   0.003113  -0.008451  28.411600  -0.345676  -0.638735  35.337000  -0.004860   0.001895  23.534500  -0.009160  -0.009828  28.676500  -0.957060  -1.748230  39.144700  -0.003463  -0.009053  26.070400  -0.005409  -0.005890  37.301200  -1.208080  -1.585220  55.976800  -0.000662  -0.003017  37.280600  -0.000335  -0.008049   3.248870   4.128800  -3.768220   0.193215   0.107464   9.302460  -3.233960  -2.954200  -0.292298   0.000000   0.000000   0.000000  -1.699580   5.849510  -6.663210   0.892633   0.619750 -11.011900   1.314320  -3.649650  -2.240340   0.000000   0.000000  -0.000000
 -0.615250  89.399800   1.163310  -0.774016  -1.867260   4.524360   0.884142   0.718238  -0.328543   1.772650   1.431310  -0.668206  -1.660750   1.451460   0.049899  -2.732730   2.935590   1.850910  -1.914380   4.840270   8.618570 -80.369000   3.722040   3.189320   2.246810   8.113460 -15.670300  10.024600  -5.586960  -0.984334  39.444600  34.183200 -52.521400 -34.164100   0.002682   0.002038 -12.082000   0.008626   0.002821 -36.642900  -0.191857   0.257892 -29.980900  -0.004416   0.003806 -20.986600  -0.003434   0.003650 -33.209500  -3.652950   5.553570 -50.079400   0.005973  -0.011857 -33.352900   0.004127   0.000356 -28.635500  -4.434670   8.035900 -43.421300   0.000504  -0.012242 -28.918500   0.001561  -0.000629 -36.765500  -7.469760   9.870400 -56.117200   0.002273  -0.001989 -37.374000   0.003916   0.005595   4.963420   5.859840   3.888930  70.861200  -6.154230  -5.217440   3.184710  -4.452680  12.066900 -15.745400  -0.037694   4.321560 -41.657500  36.240500  74.245100  27.245500   0.002334  -0.005475   8.622720   0.006067  -0.005415  31.216800   0.932159   1.537730  25.551200  -0.002644  -0.002877  17.885800   0.003114  -0.008449  28.411800  -0.343011  -0.633910  35.308800  -0.004857   0.001896  23.515700  -0.009158  -0.009827  28.678000  -0.931221  -1.701060  39.140700  -0.003462  -0.009051  26.067700  -0.005405  -0.005888  37.290200  -1.175160  -1.542690  55.959000  -0.000661  -0.003014  37.268700  -0.000336  -0.008048   3.261210   4.120250  -3.766650   0.195320   0.112783   9.310270  -3.245680  -2.954730  -0.292311   0.000000   0.000000  -0.000000  -1.699510   5.851750  -6.663520   0.900621   0.604013 -11.018900   1.307400  -3.641020  -2.227440   0.000000   0.000000   0.000000
 -0.633903  89.399900   1.163470  -0.774731  -1.861420   4.514760   0.885077   0.736340  -0.331336   1.774610   1.467460  -0.674074  -1.648980   1.488340   0.049884  -2.713980   3.010370   1.836360  -1.915190   4.840390   8.606380 -80.333500   3.746480   3.189630   2.231270   8.095720 -15.670300  10.051200  -5.577370  -0.971042  39.435600  34.165600 -52.481700 -34.164100   0.002684   0.002022 -12.082000   0.008630   0.002824 -36.635500  -0.190302   0.255930 -29.974800  -0.004409   0.003798 -20.982300  -0.003425   0.003644 -33.209100  -3.652950   5.553720 -50.078800   0.005982  -0.011857 -33.352500   0.004129   0.000347 -28.643000  -4.434530   8.035510 -43.432200   0.000502  -0.012250 -28.925800   0.001565  -0.000640 -36.782400  -7.478140   9.875330 -56.144100   0.002278  -0.002005 -37.392000   0.003922   0.005600   4.957890   5.837540   3.869270  70.828800  -6.154740  -5.234070   3.205400  -4.465420  12.077900 -15.732300  -0.037798   4.321560 -41.700200  36.276600  74.239300  27.253300   0.002327  -0.005470   8.626620   0.006053  -0.005397  31.193700   0.920744   1.520290  25.532100  -0.002642  -0.002868  17.872400   0.003115  -0.008442  28.412000  -0.340345  -0.629084  35.268800  -0.004851   0.001899  23.489100  -0.009151  -0.009821  28.679600  -0.905380  -1.653890  39.132900  -0.003458  -0.009047  26.062600  -0.005397  -0.005881  37.279200  -1.142240  -1.500150  55.941300  -0.000659  -0.003007  37.256900  -0.000337  -0.008044   3.280570   4.111710  -3.762250   0.197417   0.118101   9.321620  -3.264150  -2.955260  -0.292407  -0.000000   0.000000   0.000000  -1.699370   5.855690  -6.663970   0.914660   0.578997 -11.031700   1.294840  -3.627410  -2.202890  -0.000000   0.000000   0.000000
 -0.648847  89.399900   1.163650  -0.775165  -1.858330   4.506350   0.888708   0.752380  -0.333169   1.781940   1.499490  -0.677845  -1.651920   1.523300   0.049924  -2.719090   3.081420   1.840830  -1.923880   4.827140   8.601610 -80.316800   3.758550   3.189800   2.223610   8.075040 -15.653100  10.067400  -5.586480  -0.962927  39.403900  34.121400 -52.451700 -34.173800   0.002701   0.002011 -12.086900   0.008622   0.002826 -36.653500  -0.183819   0.247102 -29.989500  -0.004397   0.003786 -20.992600  -0.003412   0.003635 -33.223800  -3.652950   5.553680 -50.101000   0.005995  -0.011856 -33.367400   0.004132   0.000332 -28.668100  -4.434630   8.039380 -43.469900   0.000499  -0.012260 -28.951000   0.001571  -0.000660 -36.824100  -7.485310   9.871600 -56.207200   0.002285  -0.002030 -37.434100   0.003932   0.005608   4.954200   5.800550   3.864710  70.790400  -6.182760  -5.258890   3.228070  -4.461810  12.085700 -15.749500  -0.026495   4.305430 -41.743300  36.307500  74.205400  27.267100   0.002317  -0.005453   8.633550   0.006044  -0.005384  31.185300   0.901409   1.488390  25.524800  -0.002639  -0.002855  17.867300   0.003116  -0.008431  28.411500  -0.360726  -0.666776  35.257300  -0.004846   0.001904  23.481500  -0.009137  -0.009812  28.679000  -0.915951  -1.673190  39.128900  -0.003448  -0.009040  26.059900  -0.005386  -0.005869  37.282400  -1.155770  -1.517500  55.946300  -0.000656  -0.002996  37.260200  -0.000335  -0.008037   3.293520   4.113720  -3.754340   0.196628   0.108891   9.324530  -3.277070  -2.945640  -0.293317  -0.000000   0.000000   0.000000  -1.699390   5.857480  -6.664240   0.927545   0.563355 -11.044500   1.282540  -3.619190  -2.176520  -0.000000   0.000000   0.000000
 -0.663829  89.399800   1.163820  -0.775533  -1.857050   4.495580   0.894812   0.772242  -0.334078   1.794350   1.539170  -0.680265  -1.659930   1.558130   0.049964  -2.731690   3.152040   1.850500  -1.940340   4.797580   8.598830 -80.301000   3.771190   3.189900   2.212780   8.044850 -15.628900  10.074800  -5.604460  -0.959109  39.366700  34.074100 -52.432800 -34.194800   0.002729   0.001999 -12.097400   0.008610   0.002826 -36.684500  -0.175351   0.235389 -30.014900  -0.004381   0.003771 -21.010400  -0.003395   0.003622 -33.244300  -3.652950   5.553410 -50.132200   0.006013  -0.011856 -33.388100   0.004137   0.000311 -28.686900  -4.434730   8.043250 -43.498300   0.000493  -0.012273 -28.969900   0.001580  -0.000685 -36.854400  -7.489440   9.864510 -56.252400   0.002296  -0.002063 -37.464100   0.003946   0.005618   4.950840   5.750120   3.863110  70.746100  -6.222140  -5.285770   3.248940  -4.458260  12.089800 -15.776700  -0.015192   4.276250 -41.782300  36.333000  74.167300  27.276600   0.002303  -0.005427   8.638310   0.006031  -0.005371  31.177800   0.884235   1.460970  25.518300  -0.002635  -0.002838  17.862800   0.003116  -0.008415  28.410800  -0.381106  -0.704468  35.242100  -0.004839   0.001911  23.471300  -0.009118  -0.009800  28.677900  -0.934398  -1.706950  39.115200  -0.003435  -0.009031  26.050700  -0.005371  -0.005853  37.285000  -1.179050  -1.548120  55.951300  -0.000654  -0.002981  37.263600  -0.000333  -0.008029   3.304560   4.121850  -3.745630   0.195213   0.088390   9.330740  -3.288090  -2.926450  -0.297348  -0.000000   0.000000  -0.000000  -1.699070   5.863150  -6.664420   0.941066   0.545524 -11.058600   1.269300  -3.609800  -2.147090  -0.000000   0.000000  -0.000000
 -0.679238  89.399600   1.163880  -0.775630  -1.861460   4.480150   0.902135   0.799487  -0.334046   1.809190   1.593610  -0.680933  -1.673570   1.587810   0.049861  -2.754860   3.211670   1.861950  -1.963030   4.756130   8.596000 -80.276300   3.789630   3.188190   2.198610   7.995300 -15.617000  10.056200  -5.626240  -0.965151  39.333800  34.042000 -52.444000 -34.227100   0.002753   0.001980 -12.112700   0.008606   0.002813 -36.718100  -0.169531   0.227330 -30.042300  -0.004361   0.003752 -21.029600  -0.003375   0.003606 -33.252200  -3.652960   5.551650 -50.145500   0.006034  -0.011857 -33.396000   0.004142   0.000285 -28.685300  -4.431260   8.037550 -43.495300   0.000486  -0.012289 -28.966100   0.001590  -0.000715 -36.851200  -7.483770   9.856720 -56.245900   0.002311  -0.002102 -37.459800   0.003963   0.005632   4.947810   5.684390   3.860360  70.700900  -6.237450  -5.306050   3.261390  -4.472970  12.077900 -15.794900  -0.019944   4.240190 -41.806100  36.342300  74.148100  27.272600   0.002284  -0.005401   8.636290   0.006003  -0.005359  31.163600   0.879777   1.454910  25.506700  -0.002631  -0.002817  17.854700   0.003115  -0.008396  28.407200  -0.378076  -0.698957  35.199000  -0.004826   0.001920  23.442600  -0.009097  -0.009785  28.676600  -0.955335  -1.745470  39.054500  -0.003421  -0.009018  26.010300  -0.005352  -0.005834  37.257900  -1.204540  -1.583820  55.912000  -0.000651  -0.002962  37.237400  -0.000331  -0.008018   3.313550   4.144350  -3.738190   0.193488   0.052430   9.351540  -3.295250  -2.897750  -0.306901  -0.000000   0.000000   0.000000  -1.698010   5.881440  -6.661860   0.955053   0.515923 -11.074800   1.255700  -3.595080  -2.114920   0.000000   0.000000   0.000000
